<svg xmlns="http://www.w3.org/2000/svg" width="784" height="248" viewBox="0 0 784 248">
  <defs>
    <filter id="glow" x="-100%" y="-100%" width="300%" height="300%">
      <feGaussianBlur in="SourceGraphic" stdDeviation="3" result="blur1"/>
      <feFlood flood-color="#A6A8D9" flood-opacity="0.55" result="color1"/>
      <feComposite in="color1" in2="blur1" operator="in" result="glow1"/>

      <feGaussianBlur in="SourceGraphic" stdDeviation="8" result="blur2"/>
      <feFlood flood-color="#A6A8D9" flood-opacity="0.35" result="color2"/>
      <feComposite in="color2" in2="blur2" operator="in" result="glow2"/>

      <feGaussianBlur in="SourceGraphic" stdDeviation="16" result="blur3"/>
      <feFlood flood-color="#A6A8D9" flood-opacity="0.2" result="color3"/>
      <feComposite in="color3" in2="blur3" operator="in" result="glow3"/>

      <feMerge>
        <feMergeNode in="glow3"/>
        <feMergeNode in="glow2"/>
        <feMergeNode in="glow1"/>
        <feMergeNode in="SourceGraphic"/>
      </feMerge>
    </filter></defs>
  
    <g transform="translate(44.0,48.0)">
      <g filter="url(#glow)">
        <path d="M1.5 0h21l-1.91 21.563L11.977 24l-8.564-2.438L1.5 0zm7.031 9.75l-.232-2.718 10.059.003.23-2.622L5.412 4.41l.698 8.01h9.126l-.326 3.426-2.91.804-2.955-.81-.188-2.11H6.248l.33 4.171L12 19.351l5.379-1.443.744-8.157H8.531z" transform="scale(2.1666666666666665)" fill="#A6A8D9"/>
      </g>
      <path d="M1.5 0h21l-1.91 21.563L11.977 24l-8.564-2.438L1.5 0zm7.031 9.75l-.232-2.718 10.059.003.23-2.622L5.412 4.41l.698 8.01h9.126l-.326 3.426-2.91.804-2.955-.81-.188-2.11H6.248l.33 4.171L12 19.351l5.379-1.443.744-8.157H8.531z" transform="scale(2.1666666666666665)" fill="#E34F26"/>
    </g>
    <g transform="translate(136.0,48.0)">
      <g filter="url(#glow)">
        <path d="M0 0v20.16A3.84 3.84 0 0 0 3.84 24h16.32A3.84 3.84 0 0 0 24 20.16V3.84A3.84 3.84 0 0 0 20.16 0Zm14.256 13.08c1.56 0 2.28 1.08 2.304 2.64h-1.608c.024-.288-.048-.6-.144-.84-.096-.192-.288-.264-.552-.264-.456 0-.696.264-.696.84-.024.576.288.888.768 1.08.72.288 1.608.744 1.92 1.296q.432.648.432 1.656c0 1.608-.912 2.592-2.496 2.592-1.656 0-2.4-1.032-2.424-2.688h1.68c0 .792.264 1.176.792 1.176.264 0 .456-.072.552-.24.192-.312.24-1.176-.048-1.512-.312-.408-.912-.6-1.32-.816q-.828-.396-1.224-.936c-.24-.36-.36-.888-.36-1.536 0-1.44.936-2.472 2.424-2.448m5.4 0c1.584 0 2.304 1.08 2.328 2.64h-1.608c0-.288-.048-.6-.168-.84-.096-.192-.264-.264-.528-.264-.48 0-.72.264-.72.84s.288.888.792 1.08c.696.288 1.608.744 1.92 1.296.264.432.408.984.408 1.656.024 1.608-.888 2.592-2.472 2.592-1.68 0-2.424-1.056-2.448-2.688h1.68c0 .744.264 1.176.792 1.176.264 0 .456-.072.552-.24.216-.312.264-1.176-.048-1.512-.288-.408-.888-.6-1.32-.816-.552-.264-.96-.576-1.2-.936s-.36-.888-.36-1.536c-.024-1.44.912-2.472 2.4-2.448m-11.031.018c.711-.006 1.419.198 1.839.63.432.432.672 1.128.648 1.992H9.336c.024-.456-.096-.792-.432-.96-.312-.144-.768-.048-.888.24-.12.264-.192.576-.168.864v3.504c0 .744.264 1.128.768 1.128a.65.65 0 0 0 .552-.264c.168-.24.192-.552.168-.84h1.776c.096 1.632-.984 2.712-2.568 2.688-1.536 0-2.496-.864-2.472-2.472v-4.032c0-.816.24-1.44.696-1.848.432-.408 1.146-.624 1.857-.63" transform="scale(2.1666666666666665)" fill="#A6A8D9"/>
      </g>
      <path d="M0 0v20.16A3.84 3.84 0 0 0 3.84 24h16.32A3.84 3.84 0 0 0 24 20.16V3.84A3.84 3.84 0 0 0 20.16 0Zm14.256 13.08c1.56 0 2.28 1.08 2.304 2.64h-1.608c.024-.288-.048-.6-.144-.84-.096-.192-.288-.264-.552-.264-.456 0-.696.264-.696.84-.024.576.288.888.768 1.08.72.288 1.608.744 1.92 1.296q.432.648.432 1.656c0 1.608-.912 2.592-2.496 2.592-1.656 0-2.4-1.032-2.424-2.688h1.68c0 .792.264 1.176.792 1.176.264 0 .456-.072.552-.24.192-.312.24-1.176-.048-1.512-.312-.408-.912-.6-1.32-.816q-.828-.396-1.224-.936c-.24-.36-.36-.888-.36-1.536 0-1.44.936-2.472 2.424-2.448m5.4 0c1.584 0 2.304 1.08 2.328 2.64h-1.608c0-.288-.048-.6-.168-.84-.096-.192-.264-.264-.528-.264-.48 0-.72.264-.72.84s.288.888.792 1.08c.696.288 1.608.744 1.92 1.296.264.432.408.984.408 1.656.024 1.608-.888 2.592-2.472 2.592-1.68 0-2.424-1.056-2.448-2.688h1.68c0 .744.264 1.176.792 1.176.264 0 .456-.072.552-.24.216-.312.264-1.176-.048-1.512-.288-.408-.888-.6-1.32-.816-.552-.264-.96-.576-1.2-.936s-.36-.888-.36-1.536c-.024-1.44.912-2.472 2.4-2.448m-11.031.018c.711-.006 1.419.198 1.839.63.432.432.672 1.128.648 1.992H9.336c.024-.456-.096-.792-.432-.96-.312-.144-.768-.048-.888.24-.12.264-.192.576-.168.864v3.504c0 .744.264 1.128.768 1.128a.65.65 0 0 0 .552-.264c.168-.24.192-.552.168-.84h1.776c.096 1.632-.984 2.712-2.568 2.688-1.536 0-2.496-.864-2.472-2.472v-4.032c0-.816.24-1.44.696-1.848.432-.408 1.146-.624 1.857-.63" transform="scale(2.1666666666666665)" fill="#1572B6"/>
    </g>
    <g transform="translate(228.0,48.0)">
      <g filter="url(#glow)">
        <path d="M22.394 6c-.167-.29-.398-.543-.652-.69L12.926.22c-.509-.294-1.34-.294-1.848 0L2.26 5.31c-.508.293-.923 1.013-.923 1.6v10.18c0 .294.104.62.271.91.167.29.398.543.652.69l8.816 5.09c.508.293 1.34.293 1.848 0l8.816-5.09c.254-.147.485-.4.652-.69.167-.29.27-.616.27-.91V6.91c.003-.294-.1-.62-.268-.91zM12 19.11c-3.92 0-7.109-3.19-7.109-7.11 0-3.92 3.19-7.11 7.11-7.11a7.133 7.133 0 016.156 3.553l-3.076 1.78a3.567 3.567 0 00-3.08-1.78A3.56 3.56 0 008.444 12 3.56 3.56 0 0012 15.555a3.57 3.57 0 003.08-1.778l3.078 1.78A7.135 7.135 0 0112 19.11zm7.11-6.715h-.79v.79h-.79v-.79h-.79v-.79h.79v-.79h.79v.79h.79zm2.962 0h-.79v.79h-.79v-.79h-.79v-.79h.79v-.79h.79v.79h.79z" transform="scale(2.1666666666666665)" fill="#A6A8D9"/>
      </g>
      <path d="M22.394 6c-.167-.29-.398-.543-.652-.69L12.926.22c-.509-.294-1.34-.294-1.848 0L2.26 5.31c-.508.293-.923 1.013-.923 1.6v10.18c0 .294.104.62.271.91.167.29.398.543.652.69l8.816 5.09c.508.293 1.34.293 1.848 0l8.816-5.09c.254-.147.485-.4.652-.69.167-.29.27-.616.27-.91V6.91c.003-.294-.1-.62-.268-.91zM12 19.11c-3.92 0-7.109-3.19-7.109-7.11 0-3.92 3.19-7.11 7.11-7.11a7.133 7.133 0 016.156 3.553l-3.076 1.78a3.567 3.567 0 00-3.08-1.78A3.56 3.56 0 008.444 12 3.56 3.56 0 0012 15.555a3.57 3.57 0 003.08-1.778l3.078 1.78A7.135 7.135 0 0112 19.11zm7.11-6.715h-.79v.79h-.79v-.79h-.79v-.79h.79v-.79h.79v.79h.79zm2.962 0h-.79v.79h-.79v-.79h-.79v-.79h.79v-.79h.79v.79h.79z" transform="scale(2.1666666666666665)" fill="#00599C"/>
    </g>
    <g transform="translate(320.0,48.0)">
      <g filter="url(#glow)">
        <path d="M0 0h24v24H0V0zm22.034 18.276c-.175-1.095-.888-2.015-3.003-2.873-.736-.345-1.554-.585-1.797-1.14-.091-.33-.105-.51-.046-.705.15-.646.915-.84 1.515-.66.39.12.75.42.976.9 1.034-.676 1.034-.676 1.755-1.125-.27-.42-.404-.601-.586-.78-.63-.705-1.469-1.065-2.834-1.034l-.705.089c-.676.165-1.32.525-1.71 1.005-1.14 1.291-.811 3.541.569 4.471 1.365 1.02 3.361 1.244 3.616 2.205.24 1.17-.87 1.545-1.966 1.41-.811-.18-1.26-.586-1.755-1.336l-1.83 1.051c.21.48.45.689.81 1.109 1.74 1.756 6.09 1.666 6.871-1.004.029-.09.24-.705.074-1.65l.046.067zm-8.983-7.245h-2.248c0 1.938-.009 3.864-.009 5.805 0 1.232.063 2.363-.138 2.711-.33.689-1.18.601-1.566.48-.396-.196-.597-.466-.83-.855-.063-.105-.11-.196-.127-.196l-1.825 1.125c.305.63.75 1.172 1.324 1.517.855.51 2.004.675 3.207.405.783-.226 1.458-.691 1.811-1.411.51-.93.402-2.07.397-3.346.012-2.054 0-4.109 0-6.179l.004-.056z" transform="scale(2.1666666666666665)" fill="#A6A8D9"/>
      </g>
      <path d="M0 0h24v24H0V0zm22.034 18.276c-.175-1.095-.888-2.015-3.003-2.873-.736-.345-1.554-.585-1.797-1.14-.091-.33-.105-.51-.046-.705.15-.646.915-.84 1.515-.66.39.12.75.42.976.9 1.034-.676 1.034-.676 1.755-1.125-.27-.42-.404-.601-.586-.78-.63-.705-1.469-1.065-2.834-1.034l-.705.089c-.676.165-1.32.525-1.71 1.005-1.14 1.291-.811 3.541.569 4.471 1.365 1.02 3.361 1.244 3.616 2.205.24 1.17-.87 1.545-1.966 1.41-.811-.18-1.26-.586-1.755-1.336l-1.83 1.051c.21.48.45.689.81 1.109 1.74 1.756 6.09 1.666 6.871-1.004.029-.09.24-.705.074-1.65l.046.067zm-8.983-7.245h-2.248c0 1.938-.009 3.864-.009 5.805 0 1.232.063 2.363-.138 2.711-.33.689-1.18.601-1.566.48-.396-.196-.597-.466-.83-.855-.063-.105-.11-.196-.127-.196l-1.825 1.125c.305.63.75 1.172 1.324 1.517.855.51 2.004.675 3.207.405.783-.226 1.458-.691 1.811-1.411.51-.93.402-2.07.397-3.346.012-2.054 0-4.109 0-6.179l.004-.056z" transform="scale(2.1666666666666665)" fill="#F7DF1E"/>
    </g>
    <g transform="translate(412.0,48.0)">
      <g filter="url(#glow)">
        <path d="M1.125 0C.502 0 0 .502 0 1.125v21.75C0 23.498.502 24 1.125 24h21.75c.623 0 1.125-.502 1.125-1.125V1.125C24 .502 23.498 0 22.875 0zm17.363 9.75c.612 0 1.154.037 1.627.111a6.38 6.38 0 0 1 1.306.34v2.458a3.95 3.95 0 0 0-.643-.361 5.093 5.093 0 0 0-.717-.26 5.453 5.453 0 0 0-1.426-.2c-.3 0-.573.028-.819.086a2.1 2.1 0 0 0-.623.242c-.17.104-.3.229-.393.374a.888.888 0 0 0-.14.49c0 .196.053.373.156.529.104.156.252.304.443.444s.423.276.696.41c.273.135.582.274.926.416.47.197.892.407 1.266.628.374.222.695.473.963.753.268.279.472.598.614.957.142.359.214.776.214 1.253 0 .657-.125 1.21-.373 1.656a3.033 3.033 0 0 1-1.012 1.085 4.38 4.38 0 0 1-1.487.596c-.566.12-1.163.18-1.79.18a9.916 9.916 0 0 1-1.84-.164 5.544 5.544 0 0 1-1.512-.493v-2.63a5.033 5.033 0 0 0 3.237 1.2c.333 0 .624-.03.872-.09.249-.06.456-.144.623-.25.166-.108.29-.234.373-.38a1.023 1.023 0 0 0-.074-1.089 2.12 2.12 0 0 0-.537-.5 5.597 5.597 0 0 0-.807-.444 27.72 27.72 0 0 0-1.007-.436c-.918-.383-1.602-.852-2.053-1.405-.45-.553-.676-1.222-.676-2.005 0-.614.123-1.141.369-1.582.246-.441.58-.804 1.004-1.089a4.494 4.494 0 0 1 1.47-.629 7.536 7.536 0 0 1 1.77-.201zm-15.113.188h9.563v2.166H9.506v9.646H6.789v-9.646H3.375z" transform="scale(2.1666666666666665)" fill="#A6A8D9"/>
      </g>
      <path d="M1.125 0C.502 0 0 .502 0 1.125v21.75C0 23.498.502 24 1.125 24h21.75c.623 0 1.125-.502 1.125-1.125V1.125C24 .502 23.498 0 22.875 0zm17.363 9.75c.612 0 1.154.037 1.627.111a6.38 6.38 0 0 1 1.306.34v2.458a3.95 3.95 0 0 0-.643-.361 5.093 5.093 0 0 0-.717-.26 5.453 5.453 0 0 0-1.426-.2c-.3 0-.573.028-.819.086a2.1 2.1 0 0 0-.623.242c-.17.104-.3.229-.393.374a.888.888 0 0 0-.14.49c0 .196.053.373.156.529.104.156.252.304.443.444s.423.276.696.41c.273.135.582.274.926.416.47.197.892.407 1.266.628.374.222.695.473.963.753.268.279.472.598.614.957.142.359.214.776.214 1.253 0 .657-.125 1.21-.373 1.656a3.033 3.033 0 0 1-1.012 1.085 4.38 4.38 0 0 1-1.487.596c-.566.12-1.163.18-1.79.18a9.916 9.916 0 0 1-1.84-.164 5.544 5.544 0 0 1-1.512-.493v-2.63a5.033 5.033 0 0 0 3.237 1.2c.333 0 .624-.03.872-.09.249-.06.456-.144.623-.25.166-.108.29-.234.373-.38a1.023 1.023 0 0 0-.074-1.089 2.12 2.12 0 0 0-.537-.5 5.597 5.597 0 0 0-.807-.444 27.72 27.72 0 0 0-1.007-.436c-.918-.383-1.602-.852-2.053-1.405-.45-.553-.676-1.222-.676-2.005 0-.614.123-1.141.369-1.582.246-.441.58-.804 1.004-1.089a4.494 4.494 0 0 1 1.47-.629 7.536 7.536 0 0 1 1.77-.201zm-15.113.188h9.563v2.166H9.506v9.646H6.789v-9.646H3.375z" transform="scale(2.1666666666666665)" fill="#3178C6"/>
    </g>
    <g transform="translate(504.0,48.0)">
      <g filter="url(#glow)">
        <path d="M4.105 4.105S9.158 1.58 11.684.316a3.079 3.079 0 0 1 1.481-.315c.766.047 1.677.788 1.677.788L24 9.948v9.789h-4.263V24H9.789l-9-9C.303 14.5 0 13.795 0 13.105c0-.319.18-.818.316-1.105l3.789-7.895zm.679.679v11.787c.002.543.021 1.024.498 1.508L10.204 23h8.533v-4.263L4.784 4.784zm12.055-.678c-.899-.896-1.809-1.78-2.74-2.643-.302-.267-.567-.468-1.07-.462-.37.014-.87.195-.87.195L6.341 4.105l10.498.001z" transform="scale(2.1666666666666665)" fill="#A6A8D9"/>
      </g>
      <path d="M4.105 4.105S9.158 1.58 11.684.316a3.079 3.079 0 0 1 1.481-.315c.766.047 1.677.788 1.677.788L24 9.948v9.789h-4.263V24H9.789l-9-9C.303 14.5 0 13.795 0 13.105c0-.319.18-.818.316-1.105l3.789-7.895zm.679.679v11.787c.002.543.021 1.024.498 1.508L10.204 23h8.533v-4.263L4.784 4.784zm12.055-.678c-.899-.896-1.809-1.78-2.74-2.643-.302-.267-.567-.468-1.07-.462-.37.014-.87.195-.87.195L6.341 4.105l10.498.001z" transform="scale(2.1666666666666665)" fill="#0175C2"/>
    </g>
    <g transform="translate(596.0,48.0)">
      <g filter="url(#glow)">
        <path d="M14.23 12.004a2.236 2.236 0 0 1-2.235 2.236 2.236 2.236 0 0 1-2.236-2.236 2.236 2.236 0 0 1 2.235-2.236 2.236 2.236 0 0 1 2.236 2.236zm2.648-10.69c-1.346 0-3.107.96-4.888 2.622-1.78-1.653-3.542-2.602-4.887-2.602-.41 0-.783.093-1.106.278-1.375.793-1.683 3.264-.973 6.365C1.98 8.917 0 10.42 0 12.004c0 1.59 1.99 3.097 5.043 4.03-.704 3.113-.39 5.588.988 6.38.32.187.69.275 1.102.275 1.345 0 3.107-.96 4.888-2.624 1.78 1.654 3.542 2.603 4.887 2.603.41 0 .783-.09 1.106-.275 1.374-.792 1.683-3.263.973-6.365C22.02 15.096 24 13.59 24 12.004c0-1.59-1.99-3.097-5.043-4.032.704-3.11.39-5.587-.988-6.38-.318-.184-.688-.277-1.092-.278zm-.005 1.09v.006c.225 0 .406.044.558.127.666.382.955 1.835.73 3.704-.054.46-.142.945-.25 1.44-.96-.236-2.006-.417-3.107-.534-.66-.905-1.345-1.727-2.035-2.447 1.592-1.48 3.087-2.292 4.105-2.295zm-9.77.02c1.012 0 2.514.808 4.11 2.28-.686.72-1.37 1.537-2.02 2.442-1.107.117-2.154.298-3.113.538-.112-.49-.195-.964-.254-1.42-.23-1.868.054-3.32.714-3.707.19-.09.4-.127.563-.132zm4.882 3.05c.455.468.91.992 1.36 1.564-.44-.02-.89-.034-1.345-.034-.46 0-.915.01-1.36.034.44-.572.895-1.096 1.345-1.565zM12 8.1c.74 0 1.477.034 2.202.093.406.582.802 1.203 1.183 1.86.372.64.71 1.29 1.018 1.946-.308.655-.646 1.31-1.013 1.95-.38.66-.773 1.288-1.18 1.87-.728.063-1.466.098-2.21.098-.74 0-1.477-.035-2.202-.093-.406-.582-.802-1.204-1.183-1.86-.372-.64-.71-1.29-1.018-1.946.303-.657.646-1.313 1.013-1.954.38-.66.773-1.286 1.18-1.868.728-.064 1.466-.098 2.21-.098zm-3.635.254c-.24.377-.48.763-.704 1.16-.225.39-.435.782-.635 1.174-.265-.656-.49-1.31-.676-1.947.64-.15 1.315-.283 2.015-.386zm7.26 0c.695.103 1.365.23 2.006.387-.18.632-.405 1.282-.66 1.933-.2-.39-.41-.783-.64-1.174-.225-.392-.465-.774-.705-1.146zm3.063.675c.484.15.944.317 1.375.498 1.732.74 2.852 1.708 2.852 2.476-.005.768-1.125 1.74-2.857 2.475-.42.18-.88.342-1.355.493-.28-.958-.646-1.956-1.1-2.98.45-1.017.81-2.01 1.085-2.964zm-13.395.004c.278.96.645 1.957 1.1 2.98-.45 1.017-.812 2.01-1.086 2.964-.484-.15-.944-.318-1.37-.5-1.732-.737-2.852-1.706-2.852-2.474 0-.768 1.12-1.742 2.852-2.476.42-.18.88-.342 1.356-.494zm11.678 4.28c.265.657.49 1.312.676 1.948-.64.157-1.316.29-2.016.39.24-.375.48-.762.705-1.158.225-.39.435-.788.636-1.18zm-9.945.02c.2.392.41.783.64 1.175.23.39.465.772.705 1.143-.695-.102-1.365-.23-2.006-.386.18-.63.406-1.282.66-1.933zM17.92 16.32c.112.493.2.968.254 1.423.23 1.868-.054 3.32-.714 3.708-.147.09-.338.128-.563.128-1.012 0-2.514-.807-4.11-2.28.686-.72 1.37-1.536 2.02-2.44 1.107-.118 2.154-.3 3.113-.54zm-11.83.01c.96.234 2.006.415 3.107.532.66.905 1.345 1.727 2.035 2.446-1.595 1.483-3.092 2.295-4.11 2.295-.22-.005-.406-.05-.553-.132-.666-.38-.955-1.834-.73-3.703.054-.46.142-.944.25-1.438zm4.56.64c.44.02.89.034 1.345.034.46 0 .915-.01 1.36-.034-.44.572-.895 1.095-1.345 1.565-.455-.47-.91-.993-1.36-1.565z" transform="scale(2.1666666666666665)" fill="#A6A8D9"/>
      </g>
      <path d="M14.23 12.004a2.236 2.236 0 0 1-2.235 2.236 2.236 2.236 0 0 1-2.236-2.236 2.236 2.236 0 0 1 2.235-2.236 2.236 2.236 0 0 1 2.236 2.236zm2.648-10.69c-1.346 0-3.107.96-4.888 2.622-1.78-1.653-3.542-2.602-4.887-2.602-.41 0-.783.093-1.106.278-1.375.793-1.683 3.264-.973 6.365C1.98 8.917 0 10.42 0 12.004c0 1.59 1.99 3.097 5.043 4.03-.704 3.113-.39 5.588.988 6.38.32.187.69.275 1.102.275 1.345 0 3.107-.96 4.888-2.624 1.78 1.654 3.542 2.603 4.887 2.603.41 0 .783-.09 1.106-.275 1.374-.792 1.683-3.263.973-6.365C22.02 15.096 24 13.59 24 12.004c0-1.59-1.99-3.097-5.043-4.032.704-3.11.39-5.587-.988-6.38-.318-.184-.688-.277-1.092-.278zm-.005 1.09v.006c.225 0 .406.044.558.127.666.382.955 1.835.73 3.704-.054.46-.142.945-.25 1.44-.96-.236-2.006-.417-3.107-.534-.66-.905-1.345-1.727-2.035-2.447 1.592-1.48 3.087-2.292 4.105-2.295zm-9.77.02c1.012 0 2.514.808 4.11 2.28-.686.72-1.37 1.537-2.02 2.442-1.107.117-2.154.298-3.113.538-.112-.49-.195-.964-.254-1.42-.23-1.868.054-3.32.714-3.707.19-.09.4-.127.563-.132zm4.882 3.05c.455.468.91.992 1.36 1.564-.44-.02-.89-.034-1.345-.034-.46 0-.915.01-1.36.034.44-.572.895-1.096 1.345-1.565zM12 8.1c.74 0 1.477.034 2.202.093.406.582.802 1.203 1.183 1.86.372.64.71 1.29 1.018 1.946-.308.655-.646 1.31-1.013 1.95-.38.66-.773 1.288-1.18 1.87-.728.063-1.466.098-2.21.098-.74 0-1.477-.035-2.202-.093-.406-.582-.802-1.204-1.183-1.86-.372-.64-.71-1.29-1.018-1.946.303-.657.646-1.313 1.013-1.954.38-.66.773-1.286 1.18-1.868.728-.064 1.466-.098 2.21-.098zm-3.635.254c-.24.377-.48.763-.704 1.16-.225.39-.435.782-.635 1.174-.265-.656-.49-1.31-.676-1.947.64-.15 1.315-.283 2.015-.386zm7.26 0c.695.103 1.365.23 2.006.387-.18.632-.405 1.282-.66 1.933-.2-.39-.41-.783-.64-1.174-.225-.392-.465-.774-.705-1.146zm3.063.675c.484.15.944.317 1.375.498 1.732.74 2.852 1.708 2.852 2.476-.005.768-1.125 1.74-2.857 2.475-.42.18-.88.342-1.355.493-.28-.958-.646-1.956-1.1-2.98.45-1.017.81-2.01 1.085-2.964zm-13.395.004c.278.96.645 1.957 1.1 2.98-.45 1.017-.812 2.01-1.086 2.964-.484-.15-.944-.318-1.37-.5-1.732-.737-2.852-1.706-2.852-2.474 0-.768 1.12-1.742 2.852-2.476.42-.18.88-.342 1.356-.494zm11.678 4.28c.265.657.49 1.312.676 1.948-.64.157-1.316.29-2.016.39.24-.375.48-.762.705-1.158.225-.39.435-.788.636-1.18zm-9.945.02c.2.392.41.783.64 1.175.23.39.465.772.705 1.143-.695-.102-1.365-.23-2.006-.386.18-.63.406-1.282.66-1.933zM17.92 16.32c.112.493.2.968.254 1.423.23 1.868-.054 3.32-.714 3.708-.147.09-.338.128-.563.128-1.012 0-2.514-.807-4.11-2.28.686-.72 1.37-1.536 2.02-2.44 1.107-.118 2.154-.3 3.113-.54zm-11.83.01c.96.234 2.006.415 3.107.532.66.905 1.345 1.727 2.035 2.446-1.595 1.483-3.092 2.295-4.11 2.295-.22-.005-.406-.05-.553-.132-.666-.38-.955-1.834-.73-3.703.054-.46.142-.944.25-1.438zm4.56.64c.44.02.89.034 1.345.034.46 0 .915-.01 1.36-.034-.44.572-.895 1.095-1.345 1.565-.455-.47-.91-.993-1.36-1.565z" transform="scale(2.1666666666666665)" fill="#61DAFB"/>
    </g>
    <g transform="translate(688.0,48.0)">
      <g filter="url(#glow)">
        <path d="M18.665 21.978C16.758 23.255 14.465 24 12 24 5.377 24 0 18.623 0 12S5.377 0 12 0s12 5.377 12 12c0 3.583-1.574 6.801-4.067 9.001L9.219 7.2H7.2v9.596h1.615V9.251l9.85 12.727Zm-3.332-8.533 1.6 2.061V7.2h-1.6v6.245Z" transform="scale(2.1666666666666665)" fill="#A6A8D9"/>
      </g>
      <path d="M18.665 21.978C16.758 23.255 14.465 24 12 24 5.377 24 0 18.623 0 12S5.377 0 12 0s12 5.377 12 12c0 3.583-1.574 6.801-4.067 9.001L9.219 7.2H7.2v9.596h1.615V9.251l9.85 12.727Zm-3.332-8.533 1.6 2.061V7.2h-1.6v6.245Z" transform="scale(2.1666666666666665)" fill="#FFFFFF"/>
    </g>
    <g transform="translate(44.0,148.0)">
      <g filter="url(#glow)">
        <path d="M8.358 20.162c-1.186-1.07-1.532-3.316-1.038-4.944.856 1.026 2.043 1.352 3.272 1.535 1.897.283 3.76.177 5.522-.678.202-.098.388-.229.608-.36.166.473.209.95.151 1.437-.14 1.185-.738 2.1-1.688 2.794-.38.277-.782.525-1.175.787-1.205.804-1.531 1.747-1.078 3.119l.044.148a3.158 3.158 0 0 1-1.407-1.188 3.31 3.31 0 0 1-.544-1.815c-.004-.32-.004-.642-.048-.958-.106-.769-.472-1.113-1.161-1.133-.707-.02-1.267.411-1.415 1.09-.012.053-.028.104-.045.165h.002zm-5.961-4.445s3.24-1.575 6.49-1.575l2.451-7.565c.092-.366.36-.614.662-.614.302 0 .57.248.662.614l2.45 7.565c3.85 0 6.491 1.575 6.491 1.575L16.088.727C15.93.285 15.663 0 15.303 0H8.697c-.36 0-.615.285-.784.727l-5.516 14.99z" transform="scale(2.1666666666666665)" fill="#A6A8D9"/>
      </g>
      <path d="M8.358 20.162c-1.186-1.07-1.532-3.316-1.038-4.944.856 1.026 2.043 1.352 3.272 1.535 1.897.283 3.76.177 5.522-.678.202-.098.388-.229.608-.36.166.473.209.95.151 1.437-.14 1.185-.738 2.1-1.688 2.794-.38.277-.782.525-1.175.787-1.205.804-1.531 1.747-1.078 3.119l.044.148a3.158 3.158 0 0 1-1.407-1.188 3.31 3.31 0 0 1-.544-1.815c-.004-.32-.004-.642-.048-.958-.106-.769-.472-1.113-1.161-1.133-.707-.02-1.267.411-1.415 1.09-.012.053-.028.104-.045.165h.002zm-5.961-4.445s3.24-1.575 6.49-1.575l2.451-7.565c.092-.366.36-.614.662-.614.302 0 .57.248.662.614l2.45 7.565c3.85 0 6.491 1.575 6.491 1.575L16.088.727C15.93.285 15.663 0 15.303 0H8.697c-.36 0-.615.285-.784.727l-5.516 14.99z" transform="scale(2.1666666666666665)" fill="#FF5D01"/>
    </g>
    <g transform="translate(136.0,148.0)">
      <g filter="url(#glow)">
        <path d="M11.998,24c-0.321,0-0.641-0.084-0.922-0.247l-2.936-1.737c-0.438-0.245-0.224-0.332-0.08-0.383 c0.585-0.203,0.703-0.25,1.328-0.604c0.065-0.037,0.151-0.023,0.218,0.017l2.256,1.339c0.082,0.045,0.197,0.045,0.272,0l8.795-5.076 c0.082-0.047,0.134-0.141,0.134-0.238V6.921c0-0.099-0.053-0.192-0.137-0.242l-8.791-5.072c-0.081-0.047-0.189-0.047-0.271,0 L3.075,6.68C2.99,6.729,2.936,6.825,2.936,6.921v10.15c0,0.097,0.054,0.189,0.139,0.235l2.409,1.392 c1.307,0.654,2.108-0.116,2.108-0.89V7.787c0-0.142,0.114-0.253,0.256-0.253h1.115c0.139,0,0.255,0.112,0.255,0.253v10.021 c0,1.745-0.95,2.745-2.604,2.745c-0.508,0-0.909,0-2.026-0.551L2.28,18.675c-0.57-0.329-0.922-0.945-0.922-1.604V6.921 c0-0.659,0.353-1.275,0.922-1.603l8.795-5.082c0.557-0.315,1.296-0.315,1.848,0l8.794,5.082c0.57,0.329,0.924,0.944,0.924,1.603 v10.15c0,0.659-0.354,1.273-0.924,1.604l-8.794,5.078C12.643,23.916,12.324,24,11.998,24z M19.099,13.993 c0-1.9-1.284-2.406-3.987-2.763c-2.731-0.361-3.009-0.548-3.009-1.187c0-0.528,0.235-1.233,2.258-1.233 c1.807,0,2.473,0.389,2.747,1.607c0.024,0.115,0.129,0.199,0.247,0.199h1.141c0.071,0,0.138-0.031,0.186-0.081 c0.048-0.054,0.074-0.123,0.067-0.196c-0.177-2.098-1.571-3.076-4.388-3.076c-2.508,0-4.004,1.058-4.004,2.833 c0,1.925,1.488,2.457,3.895,2.695c2.88,0.282,3.103,0.703,3.103,1.269c0,0.983-0.789,1.402-2.642,1.402 c-2.327,0-2.839-0.584-3.011-1.742c-0.02-0.124-0.126-0.215-0.253-0.215h-1.137c-0.141,0-0.254,0.112-0.254,0.253 c0,1.482,0.806,3.248,4.655,3.248C17.501,17.007,19.099,15.91,19.099,13.993z" transform="scale(2.1666666666666665)" fill="#A6A8D9"/>
      </g>
      <path d="M11.998,24c-0.321,0-0.641-0.084-0.922-0.247l-2.936-1.737c-0.438-0.245-0.224-0.332-0.08-0.383 c0.585-0.203,0.703-0.25,1.328-0.604c0.065-0.037,0.151-0.023,0.218,0.017l2.256,1.339c0.082,0.045,0.197,0.045,0.272,0l8.795-5.076 c0.082-0.047,0.134-0.141,0.134-0.238V6.921c0-0.099-0.053-0.192-0.137-0.242l-8.791-5.072c-0.081-0.047-0.189-0.047-0.271,0 L3.075,6.68C2.99,6.729,2.936,6.825,2.936,6.921v10.15c0,0.097,0.054,0.189,0.139,0.235l2.409,1.392 c1.307,0.654,2.108-0.116,2.108-0.89V7.787c0-0.142,0.114-0.253,0.256-0.253h1.115c0.139,0,0.255,0.112,0.255,0.253v10.021 c0,1.745-0.95,2.745-2.604,2.745c-0.508,0-0.909,0-2.026-0.551L2.28,18.675c-0.57-0.329-0.922-0.945-0.922-1.604V6.921 c0-0.659,0.353-1.275,0.922-1.603l8.795-5.082c0.557-0.315,1.296-0.315,1.848,0l8.794,5.082c0.57,0.329,0.924,0.944,0.924,1.603 v10.15c0,0.659-0.354,1.273-0.924,1.604l-8.794,5.078C12.643,23.916,12.324,24,11.998,24z M19.099,13.993 c0-1.9-1.284-2.406-3.987-2.763c-2.731-0.361-3.009-0.548-3.009-1.187c0-0.528,0.235-1.233,2.258-1.233 c1.807,0,2.473,0.389,2.747,1.607c0.024,0.115,0.129,0.199,0.247,0.199h1.141c0.071,0,0.138-0.031,0.186-0.081 c0.048-0.054,0.074-0.123,0.067-0.196c-0.177-2.098-1.571-3.076-4.388-3.076c-2.508,0-4.004,1.058-4.004,2.833 c0,1.925,1.488,2.457,3.895,2.695c2.88,0.282,3.103,0.703,3.103,1.269c0,0.983-0.789,1.402-2.642,1.402 c-2.327,0-2.839-0.584-3.011-1.742c-0.02-0.124-0.126-0.215-0.253-0.215h-1.137c-0.141,0-0.254,0.112-0.254,0.253 c0,1.482,0.806,3.248,4.655,3.248C17.501,17.007,19.099,15.91,19.099,13.993z" transform="scale(2.1666666666666665)" fill="#339933"/>
    </g>
    <g transform="translate(228.0,148.0)">
      <g filter="url(#glow)">
        <path d="M12.001,4.8c-3.2,0-5.2,1.6-6,4.8c1.2-1.6,2.6-2.2,4.2-1.8c0.913,0.228,1.565,0.89,2.288,1.624 C13.666,10.618,15.027,12,18.001,12c3.2,0,5.2-1.6,6-4.8c-1.2,1.6-2.6,2.2-4.2,1.8c-0.913-0.228-1.565-0.89-2.288-1.624 C16.337,6.182,14.976,4.8,12.001,4.8z M6.001,12c-3.2,0-5.2,1.6-6,4.8c1.2-1.6,2.6-2.2,4.2-1.8c0.913,0.228,1.565,0.89,2.288,1.624 c1.177,1.194,2.538,2.576,5.512,2.576c3.2,0,5.2-1.6,6-4.8c-1.2,1.6-2.6,2.2-4.2,1.8c-0.913-0.228-1.565-0.89-2.288-1.624 C10.337,13.382,8.976,12,6.001,12z" transform="scale(2.1666666666666665)" fill="#A6A8D9"/>
      </g>
      <path d="M12.001,4.8c-3.2,0-5.2,1.6-6,4.8c1.2-1.6,2.6-2.2,4.2-1.8c0.913,0.228,1.565,0.89,2.288,1.624 C13.666,10.618,15.027,12,18.001,12c3.2,0,5.2-1.6,6-4.8c-1.2,1.6-2.6,2.2-4.2,1.8c-0.913-0.228-1.565-0.89-2.288-1.624 C16.337,6.182,14.976,4.8,12.001,4.8z M6.001,12c-3.2,0-5.2,1.6-6,4.8c1.2-1.6,2.6-2.2,4.2-1.8c0.913,0.228,1.565,0.89,2.288,1.624 c1.177,1.194,2.538,2.576,5.512,2.576c3.2,0,5.2-1.6,6-4.8c-1.2,1.6-2.6,2.2-4.2,1.8c-0.913-0.228-1.565-0.89-2.288-1.624 C10.337,13.382,8.976,12,6.001,12z" transform="scale(2.1666666666666665)" fill="#38BDF8"/>
    </g>
    <g transform="translate(320.0,148.0)">
      <g filter="url(#glow)">
        <path d="M13.056 23.238a.57.57 0 0 1-1.02-.355v-5.202c0-.63-.512-1.143-1.144-1.143H5.148a.57.57 0 0 1-.464-.903l3.777-5.29c.54-.753 0-1.804-.93-1.804H.57a.574.574 0 0 1-.543-.746.6.6 0 0 1 .08-.157L5.008.78a.57.57 0 0 1 .467-.24h14.589a.57.57 0 0 1 .466.903l-3.778 5.29c-.54.755 0 1.806.93 1.806h5.745c.238 0 .424.138.513.322a.56.56 0 0 1-.063.603z" transform="scale(2.1666666666666665)" fill="#A6A8D9"/>
      </g>
      <path d="M13.056 23.238a.57.57 0 0 1-1.02-.355v-5.202c0-.63-.512-1.143-1.144-1.143H5.148a.57.57 0 0 1-.464-.903l3.777-5.29c.54-.753 0-1.804-.93-1.804H.57a.574.574 0 0 1-.543-.746.6.6 0 0 1 .08-.157L5.008.78a.57.57 0 0 1 .467-.24h14.589a.57.57 0 0 1 .466.903l-3.778 5.29c-.54.755 0 1.806.93 1.806h5.745c.238 0 .424.138.513.322a.56.56 0 0 1-.063.603z" transform="scale(2.1666666666666665)" fill="#646CFF"/>
    </g>
    <g transform="translate(412.0,148.0)">
      <g filter="url(#glow)">
        <path d="M19.455 8.369c-.538-.748-1.778-2.285-3.681-4.569-.826-.991-1.535-1.832-1.884-2.245a146 146 0 0 0-.488-.576l-.207-.245-.113-.133-.022-.032-.01-.005L12.57 0l-.609.488c-1.555 1.246-2.828 2.851-3.681 4.64-.523 1.064-.864 2.105-1.043 3.176-.047.241-.088.489-.121.738-.209-.017-.421-.028-.632-.033-.018-.001-.035-.002-.059-.003a7.46 7.46 0 0 0-2.28.274l-.317.089-.163.286c-.765 1.342-1.198 2.869-1.252 4.416-.07 2.01.477 3.954 1.583 5.625 1.082 1.633 2.61 2.882 4.42 3.611l.236.095.071.025.003-.001a9.59 9.59 0 0 0 2.941.568q.171.006.342.006c1.273 0 2.513-.249 3.69-.742l.008.004.313-.145a9.63 9.63 0 0 0 3.927-3.335c1.01-1.49 1.577-3.234 1.641-5.042.075-2.161-.643-4.304-2.133-6.371m-7.083 6.695c.328 1.244.264 2.44-.191 3.558-1.135-1.12-1.967-2.352-2.475-3.665-.543-1.404-.87-2.74-.974-3.975.48.157.922.366 1.315.622 1.132.737 1.914 1.902 2.325 3.461zm.207 6.022c.482.368.99.712 1.513 1.028-.771.21-1.565.302-2.369.273a8 8 0 0 1-.373-.022c.458-.394.869-.823 1.228-1.279zm1.347-6.431c-.516-1.957-1.527-3.437-3.002-4.398-.647-.421-1.385-.741-2.194-.95.011-.134.026-.268.043-.4.014-.113.03-.216.046-.313.133-.689.332-1.37.589-2.025.099-.25.206-.499.321-.74l.004-.008c.177-.358.376-.719.61-1.105l.092-.152-.003-.001c.544-.851 1.197-1.627 1.942-2.311l.288.341c.672.796 1.304 1.548 1.878 2.237 1.291 1.549 2.966 3.583 3.612 4.48 1.277 1.771 1.893 3.579 1.83 5.375-.049 1.395-.461 2.755-1.195 3.933-.694 1.116-1.661 2.05-2.8 2.708-.636-.318-1.559-.839-2.539-1.599.79-1.575.952-3.28.479-5.072zm-2.575 5.397c-.725.939-1.587 1.55-2.09 1.856-.081-.029-.163-.06-.243-.093l-.065-.026c-1.49-.616-2.747-1.656-3.635-3.01-.907-1.384-1.356-2.993-1.298-4.653.041-1.19.338-2.327.882-3.379.316-.07.638-.114.96-.131l.084-.002c.162-.003.324-.003.478 0 .227.011.454.035.677.07.073 1.513.445 3.145 1.105 4.852.637 1.644 1.694 3.162 3.144 4.515z" transform="scale(2.1666666666666665)" fill="#A6A8D9"/>
      </g>
      <path d="M19.455 8.369c-.538-.748-1.778-2.285-3.681-4.569-.826-.991-1.535-1.832-1.884-2.245a146 146 0 0 0-.488-.576l-.207-.245-.113-.133-.022-.032-.01-.005L12.57 0l-.609.488c-1.555 1.246-2.828 2.851-3.681 4.64-.523 1.064-.864 2.105-1.043 3.176-.047.241-.088.489-.121.738-.209-.017-.421-.028-.632-.033-.018-.001-.035-.002-.059-.003a7.46 7.46 0 0 0-2.28.274l-.317.089-.163.286c-.765 1.342-1.198 2.869-1.252 4.416-.07 2.01.477 3.954 1.583 5.625 1.082 1.633 2.61 2.882 4.42 3.611l.236.095.071.025.003-.001a9.59 9.59 0 0 0 2.941.568q.171.006.342.006c1.273 0 2.513-.249 3.69-.742l.008.004.313-.145a9.63 9.63 0 0 0 3.927-3.335c1.01-1.49 1.577-3.234 1.641-5.042.075-2.161-.643-4.304-2.133-6.371m-7.083 6.695c.328 1.244.264 2.44-.191 3.558-1.135-1.12-1.967-2.352-2.475-3.665-.543-1.404-.87-2.74-.974-3.975.48.157.922.366 1.315.622 1.132.737 1.914 1.902 2.325 3.461zm.207 6.022c.482.368.99.712 1.513 1.028-.771.21-1.565.302-2.369.273a8 8 0 0 1-.373-.022c.458-.394.869-.823 1.228-1.279zm1.347-6.431c-.516-1.957-1.527-3.437-3.002-4.398-.647-.421-1.385-.741-2.194-.95.011-.134.026-.268.043-.4.014-.113.03-.216.046-.313.133-.689.332-1.37.589-2.025.099-.25.206-.499.321-.74l.004-.008c.177-.358.376-.719.61-1.105l.092-.152-.003-.001c.544-.851 1.197-1.627 1.942-2.311l.288.341c.672.796 1.304 1.548 1.878 2.237 1.291 1.549 2.966 3.583 3.612 4.48 1.277 1.771 1.893 3.579 1.83 5.375-.049 1.395-.461 2.755-1.195 3.933-.694 1.116-1.661 2.05-2.8 2.708-.636-.318-1.559-.839-2.539-1.599.79-1.575.952-3.28.479-5.072zm-2.575 5.397c-.725.939-1.587 1.55-2.09 1.856-.081-.029-.163-.06-.243-.093l-.065-.026c-1.49-.616-2.747-1.656-3.635-3.01-.907-1.384-1.356-2.993-1.298-4.653.041-1.19.338-2.327.882-3.379.316-.07.638-.114.96-.131l.084-.002c.162-.003.324-.003.478 0 .227.011.454.035.677.07.073 1.513.445 3.145 1.105 4.852.637 1.644 1.694 3.162 3.144 4.515z" transform="scale(2.1666666666666665)" fill="#FFCA28"/>
    </g>
    <g transform="translate(504.0,148.0)">
      <g filter="url(#glow)">
        <path d="m12 1.608 12 20.784H0Z" transform="scale(2.1666666666666665)" fill="#A6A8D9"/>
      </g>
      <path d="m12 1.608 12 20.784H0Z" transform="scale(2.1666666666666665)" fill="#FFFFFF"/>
    </g>
    <g transform="translate(596.0,148.0)">
      <g filter="url(#glow)">
        <path d="M6.49 19.04h-.23L5.13 17.9v-.23l1.73-1.71h1.2l.15.15v1.2L6.5 19.04ZM5.13 6.31V6.1l1.13-1.13h.23L8.2 6.68v1.2l-.15.15h-1.2L5.13 6.31Zm9.96 9.09h-1.65l-.14-.13v-3.83c0-.68-.27-1.2-1.1-1.23-.42 0-.9 0-1.43.02l-.07.08v4.96l-.14.14H8.9l-.13-.14V8.73l.13-.14h3.7a2.6 2.6 0 0 1 2.61 2.6v4.08l-.13.14Zm-8.37-2.44H.14L0 12.82v-1.64l.14-.14h6.58l.14.14v1.64l-.14.14Zm17.14 0h-6.58l-.14-.14v-1.64l.14-.14h6.58l.14.14v1.64l-.14.14ZM11.05 6.55V1.64l.14-.14h1.65l.14.14v4.9l-.14.14h-1.65l-.14-.13Zm0 15.81v-4.9l.14-.14h1.65l.14.13v4.91l-.14.14h-1.65l-.14-.14Z" transform="scale(2.1666666666666665)" fill="#A6A8D9"/>
      </g>
      <path d="M6.49 19.04h-.23L5.13 17.9v-.23l1.73-1.71h1.2l.15.15v1.2L6.5 19.04ZM5.13 6.31V6.1l1.13-1.13h.23L8.2 6.68v1.2l-.15.15h-1.2L5.13 6.31Zm9.96 9.09h-1.65l-.14-.13v-3.83c0-.68-.27-1.2-1.1-1.23-.42 0-.9 0-1.43.02l-.07.08v4.96l-.14.14H8.9l-.13-.14V8.73l.13-.14h3.7a2.6 2.6 0 0 1 2.61 2.6v4.08l-.13.14Zm-8.37-2.44H.14L0 12.82v-1.64l.14-.14h6.58l.14.14v1.64l-.14.14Zm17.14 0h-6.58l-.14-.14v-1.64l.14-.14h6.58l.14.14v1.64l-.14.14ZM11.05 6.55V1.64l.14-.14h1.65l.14.14v4.9l-.14.14h-1.65l-.14-.13Zm0 15.81v-4.9l.14-.14h1.65l.14.13v4.91l-.14.14h-1.65l-.14-.14Z" transform="scale(2.1666666666666665)" fill="#00C7B7"/>
    </g>
    <g transform="translate(688.0,148.0)">
      <g filter="url(#glow)">
        <path d="M18.263.007c-3.121-.147-5.744 2.109-6.192 5.082-.018.138-.045.272-.067.405-.696 3.703-3.936 6.507-7.827 6.507-1.388 0-2.691-.356-3.825-.979a.2024.2024 0 0 0-.302.178V24H12v-8.999c0-1.656 1.338-3 2.987-3h2.988c3.382 0 6.103-2.817 5.97-6.244-.12-3.084-2.61-5.603-5.682-5.75" transform="scale(2.1666666666666665)" fill="#A6A8D9"/>
      </g>
      <path d="M18.263.007c-3.121-.147-5.744 2.109-6.192 5.082-.018.138-.045.272-.067.405-.696 3.703-3.936 6.507-7.827 6.507-1.388 0-2.691-.356-3.825-.979a.2024.2024 0 0 0-.302.178V24H12v-8.999c0-1.656 1.338-3 2.987-3h2.988c3.382 0 6.103-2.817 5.97-6.244-.12-3.084-2.61-5.603-5.682-5.75" transform="scale(2.1666666666666665)" fill="#46E3B7"/>
    </g>
</svg>